<svg version="1.1" id="图层_1" xmlns="http://www.w3.org/2000/svg" xmlns:xlink="http://www.w3.org/1999/xlink" x="0px" y="0px" width="294.269095847" height="288.06397254783" viewBox="0 0 154.29 154.01" enable-background="new 0 0 154.29 154.01" xml:space="preserve" class="style-removed" preserveAspectRatio="none" data-parent="shape_mVuNnwygGn">
<g>
	<path fill="#201A6B" d="M154,77v0.01c0,0.82-0.01,1.63-0.05,2.44c-0.02,1.16-0.09,2.32-0.18,3.48c-0.05,0.64-0.11,1.3-0.18,1.94
		c-0.07,0.64-0.14,1.29-0.22,1.93c-0.08,0.64-0.16,1.29-0.27,1.92c-0.19,1.28-0.42,2.54-0.68,3.8c-0.11,0.52-0.21,1.03-0.33,1.55
		c-0.16,0.73-0.34,1.45-0.53,2.18c-0.15,0.61-0.33,1.22-0.49,1.83c-0.35,1.22-0.73,2.43-1.12,3.62c-0.21,0.6-0.41,1.18-0.63,1.78
		c-0.21,0.59-0.43,1.17-0.67,1.76c-0.23,0.59-0.47,1.16-0.71,1.73c-0.23,0.57-0.49,1.15-0.75,1.72c-0.26,0.56-0.52,1.12-0.77,1.68
		c-0.01,0.01-0.02,0.02-0.02,0.02c-0.27,0.56-0.54,1.11-0.82,1.66c-0.56,1.11-1.16,2.2-1.78,3.27c-0.3,0.54-0.62,1.08-0.95,1.61
		c-0.32,0.53-0.64,1.05-0.98,1.57c-0.33,0.53-0.67,1.04-1.02,1.56c-0.34,0.5-0.69,1.02-1.05,1.51c-1.68,2.37-3.49,4.64-5.42,6.8
		c-0.01,0.01-0.02,0.02-0.04,0.04c-0.49,0.56-1,1.11-1.52,1.65c-0.01,0.02-0.04,0.05-0.07,0.07c-0.28,0.29-0.56,0.6-0.86,0.88
		c-0.27,0.29-0.56,0.59-0.88,0.88c-0.29,0.29-0.59,0.57-0.88,0.86c0,0.02,0,0.02-0.01,0.01c-0.43,0.43-0.88,0.84-1.34,1.25
		c-0.53,0.48-1.07,0.96-1.61,1.41c-0.3,0.27-0.61,0.52-0.91,0.77c-3.88,3.23-8.08,6.09-12.56,8.53c-0.45,0.23-0.89,0.47-1.34,0.71
		c-0.69,0.36-1.39,0.71-2.11,1.04c-1.08,0.52-2.18,1.01-3.28,1.48c-0.57,0.25-1.16,0.48-1.73,0.71c-1.05,0.42-2.13,0.82-3.22,1.18
		c-0.36,0.13-0.73,0.25-1.09,0.36c-0.06,0.02-0.12,0.05-0.18,0.06c-0.18,0.06-0.35,0.12-0.54,0.18c-0.01,0-0.01,0-0.02,0
		c-0.09,0.04-0.2,0.07-0.29,0.09c-0.35,0.12-0.7,0.22-1.07,0.33c-0.46,0.14-0.91,0.27-1.38,0.4c-0.93,0.25-1.86,0.49-2.81,0.71
		c-0.2,0.05-0.4,0.09-0.6,0.13c-0.5,0.12-1.01,0.23-1.52,0.33c-0.62,0.13-1.25,0.26-1.89,0.36c-0.35,0.07-0.71,0.13-1.08,0.18
		c-0.22,0.05-0.43,0.08-0.66,0.12c-0.06,0.01-0.11,0.01-0.16,0.02c-0.6,0.09-1.19,0.18-1.79,0.25c-0.09,0.02-0.18,0.04-0.27,0.04
		c-0.6,0.08-1.2,0.15-1.79,0.21c-0.49,0.05-0.98,0.09-1.48,0.13c-0.15,0.02-0.32,0.04-0.47,0.05c-0.19,0.01-0.36,0.02-0.55,0.04
		c-0.34,0.02-0.67,0.05-1.01,0.06c-0.13,0.01-0.27,0.02-0.41,0.02c-0.55,0.04-1.11,0.06-1.68,0.07c-0.15,0.01-0.3,0.01-0.46,0.01
		C78.22,153.98,77.61,154,77,154c-1.57,0-3.13-0.05-4.67-0.15c-0.42-0.01-0.83-0.04-1.25-0.07c-0.12-0.01-0.25-0.02-0.37-0.04
		c-0.55-0.04-1.1-0.09-1.65-0.15c-0.62-0.06-1.24-0.13-1.85-0.21c-0.64-0.08-1.29-0.16-1.92-0.27c-0.63-0.09-1.28-0.2-1.9-0.32
		c-0.63-0.11-1.27-0.23-1.9-0.36c-0.56-0.12-1.14-0.23-1.7-0.36c-0.12-0.01-0.23-0.05-0.35-0.08c-0.56-0.13-1.11-0.27-1.68-0.41
		c-0.41-0.11-0.83-0.22-1.24-0.33c0-0.01,0-0.01,0-0.01c-0.11-0.02-0.21-0.05-0.3-0.07c-0.23-0.06-0.46-0.13-0.68-0.2
		c-0.48-0.14-0.95-0.28-1.42-0.43c-0.59-0.18-1.17-0.36-1.75-0.55c-0.09-0.04-0.19-0.06-0.28-0.11c-0.41-0.14-0.83-0.28-1.24-0.43
		c-0.11-0.04-0.21-0.07-0.32-0.12c-0.11-0.02-0.2-0.06-0.29-0.11c-0.42-0.16-0.84-0.32-1.27-0.48c-0.05-0.02-0.08-0.04-0.13-0.06
		c-0.02,0-0.05-0.01-0.07-0.02c-1.16-0.46-2.31-0.95-3.44-1.46h-0.01c-0.56-0.26-1.12-0.52-1.69-0.78
		c-0.01-0.01-0.02-0.01-0.04-0.01c-0.55-0.27-1.1-0.54-1.64-0.82c-0.01-0.01-0.02-0.01-0.04-0.01c-1.66-0.86-3.3-1.77-4.89-2.74
		c-1.04-0.63-2.06-1.29-3.08-1.98c-0.02,0-0.04-0.02-0.06-0.04c-1-0.68-1.98-1.38-2.95-2.11c-0.02,0-0.05-0.02-0.07-0.05
		c-0.96-0.73-1.91-1.48-2.84-2.24c-0.04-0.02-0.06-0.05-0.08-0.06c-0.45-0.36-0.89-0.75-1.34-1.14c-0.07-0.06-0.15-0.13-0.22-0.19
		c-0.42-0.36-0.83-0.74-1.24-1.1c-0.46-0.42-0.9-0.83-1.35-1.27c-0.36-0.35-0.73-0.7-1.08-1.05c-0.08-0.08-0.16-0.15-0.25-0.25
		c-0.84-0.84-1.66-1.7-2.47-2.59c-1.24-1.37-2.44-2.79-3.57-4.24c-0.26-0.32-0.5-0.63-0.74-0.95c-0.14-0.18-0.27-0.35-0.4-0.52
		c-0.02-0.05-0.06-0.08-0.08-0.12H15.2c-0.34-0.46-0.67-0.91-1-1.38c-0.02-0.04-0.06-0.08-0.08-0.13h-0.01
		c-0.08-0.12-0.18-0.23-0.25-0.36c-0.27-0.39-0.54-0.77-0.81-1.17c-0.69-1.02-1.36-2.07-2-3.14c-0.43-0.71-0.84-1.43-1.25-2.16
		c-0.88-1.57-1.7-3.18-2.47-4.8c-0.47-1.01-0.93-2.02-1.36-3.05c-0.23-0.57-0.47-1.16-0.7-1.75c-0.33-0.84-0.64-1.69-0.94-2.54
		c-0.01-0.01-0.01-0.01-0.01-0.01c0-0.01-0.01-0.04-0.02-0.06c-0.14-0.41-0.27-0.82-0.41-1.23c-0.11-0.3-0.2-0.61-0.3-0.93
		c-0.06-0.21-0.13-0.41-0.19-0.61c-0.18-0.59-0.35-1.17-0.53-1.76c-0.06-0.21-0.12-0.42-0.16-0.63c-0.07-0.23-0.13-0.47-0.19-0.7
		c-0.18-0.66-0.34-1.31-0.49-1.97c-0.11-0.48-0.21-0.96-0.33-1.45c-0.08-0.42-0.16-0.83-0.25-1.25c-0.09-0.45-0.18-0.9-0.26-1.37
		c-0.11-0.56-0.2-1.14-0.28-1.71c-0.06-0.41-0.13-0.82-0.18-1.24c-0.06-0.39-0.11-0.78-0.15-1.18c-0.12-0.93-0.21-1.86-0.29-2.8
		v-0.01c-0.05-0.54-0.08-1.08-0.12-1.62c-0.04-0.54-0.07-1.09-0.08-1.63c-0.02-0.55-0.05-1.1-0.06-1.64C0.01,78.11,0,77.55,0,77
		c0-0.54,0-1.09,0.02-1.63c0.01-0.54,0.04-1.08,0.06-1.63c0.02-0.54,0.05-1.08,0.08-1.62c0.09-1.62,0.23-3.22,0.45-4.8
		c0.01-0.05,0.01-0.08,0.01-0.13c0.13-1.01,0.27-2.02,0.46-3.02c1.16-7.05,3.31-13.77,6.29-20.02c0.06-0.13,0.12-0.27,0.18-0.4
		c0.14-0.29,0.28-0.59,0.42-0.87c0.13-0.28,0.27-0.56,0.42-0.84c0.12-0.23,0.23-0.46,0.35-0.68c0.13-0.23,0.25-0.47,0.37-0.69
		c0.04-0.08,0.09-0.16,0.14-0.25c0.47-0.87,0.95-1.72,1.45-2.57c0.05-0.08,0.09-0.17,0.14-0.25c0.06-0.1,0.13-0.2,0.19-0.3
		c0.59-0.98,1.21-1.95,1.84-2.91c0.06-0.09,0.11-0.18,0.17-0.27c0.04-0.05,0.08-0.11,0.11-0.16c0.46-0.68,0.93-1.35,1.41-2.02
		c0.04-0.06,0.08-0.12,0.13-0.18c0.02-0.02,0.03-0.04,0.05-0.07c0.62-0.86,1.26-1.7,1.92-2.53c0.02-0.03,0.05-0.06,0.07-0.09
		c0.68-0.85,1.37-1.69,2.08-2.51c0.01-0.02,0.03-0.03,0.04-0.05c0.72-0.82,1.45-1.63,2.2-2.43c0.01-0.01,0.02-0.03,0.04-0.04
		c0.76-0.8,1.54-1.6,2.34-2.37c1.59-1.56,3.26-3.03,4.98-4.43c0.01-0.01,0.02-0.02,0.04-0.02c0.5-0.41,1.02-0.82,1.53-1.22
		c0.12-0.09,0.23-0.18,0.34-0.27c0.54-0.41,1.09-0.81,1.64-1.21c0.61-0.45,1.22-0.87,1.83-1.29c0.79-0.53,1.58-1.05,2.39-1.55
		c0.46-0.29,0.91-0.57,1.38-0.86c0.57-0.34,1.15-0.68,1.72-1c0.12-0.07,0.23-0.13,0.34-0.2c0.61-0.34,1.23-0.67,1.85-1
		c0.67-0.34,1.34-0.68,2-1.01c0.68-0.33,1.36-0.64,2.05-0.95c0.68-0.32,1.37-0.61,2.07-0.89c0.55-0.23,1.1-0.46,1.65-0.67
		c0.32-0.13,0.63-0.25,0.95-0.36c0.56-0.2,1.12-0.4,1.7-0.61c0.57-0.19,1.16-0.39,1.76-0.57c1.41-0.45,2.84-0.86,4.28-1.22
		c0.34-0.09,0.69-0.18,1.03-0.26c0.42-0.11,0.84-0.2,1.28-0.29c0.49-0.12,0.98-0.21,1.49-0.32c0.54-0.11,1.08-0.21,1.62-0.3
		c1.59-0.29,3.21-0.53,4.84-0.7c0.5-0.06,1-0.12,1.5-0.15c0.14-0.02,0.27-0.04,0.4-0.05c0.49-0.05,0.98-0.08,1.48-0.12
		c0.48-0.04,0.96-0.06,1.45-0.08C74.35,0.04,75.67,0,77,0c0.6,0,1.19,0.01,1.8,0.02c0.29,0,0.59,0.01,0.89,0.04
		c0.42,0,0.84,0.02,1.27,0.05c0.49,0.02,1,0.05,1.49,0.09c0.46,0.02,0.9,0.06,1.36,0.11c0.45,0.04,0.9,0.07,1.35,0.13
		c0.53,0.05,1.05,0.11,1.58,0.18c0.05,0.01,0.09,0.01,0.14,0.02c0.62,0.07,1.23,0.16,1.85,0.26c0.63,0.09,1.27,0.2,1.9,0.32
		c0.63,0.11,1.27,0.23,1.89,0.36c0.46,0.08,0.9,0.19,1.34,0.28c1.34,0.29,2.65,0.63,3.96,1c0.37,0.09,0.74,0.21,1.1,0.33
		c0.81,0.23,1.62,0.48,2.41,0.75c0.28,0.09,0.57,0.19,0.87,0.29c0.43,0.15,0.86,0.3,1.28,0.46c0.49,0.18,0.97,0.36,1.45,0.55
		c0.69,0.27,1.37,0.54,2.05,0.83c0.57,0.23,1.15,0.49,1.71,0.75c2.34,1.05,4.63,2.23,6.84,3.51c0.47,0.27,0.94,0.55,1.39,0.83
		c0.47,0.28,0.94,0.56,1.39,0.87c2.79,1.77,5.45,3.71,7.97,5.82c0.34,0.28,0.68,0.56,1.01,0.86c0.04,0.04,0.07,0.06,0.11,0.08
		c0.53,0.47,1.05,0.94,1.58,1.41c0.55,0.52,1.09,1.03,1.63,1.55c0.54,0.52,1.08,1.05,1.59,1.59c1.08,1.09,2.11,2.23,3.1,3.39
		c0.5,0.59,1.01,1.18,1.5,1.79c0.47,0.57,0.93,1.15,1.37,1.73c0.05,0.06,0.08,0.12,0.12,0.16c0.45,0.57,0.88,1.16,1.29,1.75
		c0.02,0.02,0.05,0.05,0.06,0.07c0.09,0.13,0.18,0.25,0.27,0.37c0.32,0.45,0.63,0.9,0.94,1.36c0.54,0.78,1.05,1.58,1.55,2.39
		c0.25,0.39,0.48,0.77,0.71,1.17c0.81,1.34,1.57,2.69,2.28,4.09c0.3,0.59,0.6,1.17,0.89,1.76c0,0.01,0,0.01,0.01,0.02
		c0.56,1.17,1.1,2.35,1.62,3.56c0.27,0.62,0.52,1.25,0.77,1.89c0.25,0.63,0.48,1.27,0.71,1.91c0.23,0.64,0.46,1.29,0.68,1.93
		c0.21,0.64,0.42,1.3,0.62,1.96c0.02,0.08,0.05,0.18,0.07,0.26c0.18,0.56,0.34,1.14,0.49,1.7c0.18,0.66,0.35,1.31,0.52,1.98
		c0.15,0.63,0.3,1.27,0.43,1.9c0.41,1.82,0.74,3.67,1.01,5.53c0.08,0.54,0.15,1.08,0.21,1.62c0.08,0.62,0.15,1.25,0.21,1.87
		c0.04,0.36,0.07,0.71,0.09,1.08c0.04,0.34,0.06,0.68,0.08,1.02c0.04,0.46,0.06,0.91,0.08,1.38c0.04,0.6,0.06,1.2,0.07,1.8
		C153.98,75.51,154,76.25,154,77z"></path>
	<g>
		<g>
			<path fill="#00B5AD" d="M143.1,37.51c-31.06,7.1-55.12,9.9-72.36,10.7C39.27,49.65,58.06,31.25,56.3,26.85
				c-1.63-4.09-26.75,8.99-51.39,23.07c0.78-2.11,1.66-4.16,2.62-6.17c0.28-0.59,0.55-1.15,0.84-1.71c0.23-0.46,0.47-0.91,0.73-1.37
				c0.55-1.04,1.12-2.06,1.73-3.07C71.48,6.88,98.29,9.86,75.55,23.17c-0.28,0.16-0.55,0.33-0.81,0.48
				c-4.28,2.57-6.83,4.59-7.99,6.15c-6.27,8.45,28.56,2.94,54.36-8.24c1.91-0.83,3.97-1.79,6.16-2.87c2.27,1.96,4.43,4.05,6.46,6.27
				c2.11,2.3,4.08,4.71,5.89,7.25C140.86,33.92,142.02,35.69,143.1,37.51z"></path>
			<path fill="#0089BB" d="M147.9,46.94c-33.77,13.81-59.55,13.5-81.74,14.27c-25.85,0.9-34.34-11.14-21.05-21.49
				c6.98-5.45,5.39-8.1,2.99-7.56C44.22,33.02,25.99,39.94,4.17,52c0.23-0.7,0.48-1.39,0.75-2.09c0.78-2.11,1.66-4.16,2.62-6.17
				c0.28-0.59,0.55-1.15,0.84-1.71c0.23-0.46,0.47-0.91,0.73-1.37c46.08-22.4,70.55-24.21,65.63-17.01c-1.07,1.55-3.5,3.54-7.4,5.81
				c-0.2,0.12-0.4,0.23-0.59,0.34c-27.9,16.59,2.11,15.41,34.53,7.39c5.66-1.39,21.42-7.6,32.45-12.23c2.11,2.3,4.08,4.71,5.89,7.25
				c1.23,1.71,2.39,3.48,3.47,5.3c0.47,0.78,0.93,1.57,1.36,2.37C145.72,42.16,146.87,44.52,147.9,46.94z"></path>
			<path fill="#2050B6" d="M134.36,128.36c-2.5,2.79-5.2,5.4-8.08,7.81c-7.59,6.32-16.41,11.22-26.06,14.26
				c-16.54-0.38-34.83-1.39-54.93-3.24c-18.26-8.26-32.71-23.43-40.03-42.18c-2.64-6.74-4.35-13.94-4.97-21.46
				c32.4,13.34,88.76,35.7,117,41.89C122.81,126.65,128.59,127.61,134.36,128.36z"></path>
			<path fill="#203B90" d="M126.28,136.18c-3.8,3.16-7.91,5.98-12.27,8.37c-0.11,0.06-0.21,0.12-0.32,0.16
				c-0.43,0.25-0.88,0.48-1.32,0.71h-0.01c-0.69,0.36-1.39,0.71-2.11,1.04c-1.08,0.53-2.17,1.02-3.28,1.48
				c-0.57,0.25-1.16,0.48-1.73,0.71c-1.05,0.42-2.13,0.82-3.22,1.18c-0.36,0.13-0.73,0.25-1.09,0.36c-0.06,0.02-0.12,0.05-0.18,0.06
				c-0.18,0.06-0.35,0.12-0.53,0.18h-0.01c-0.01,0-0.01,0-0.02,0c-0.09,0.04-0.2,0.07-0.29,0.09c-0.35,0.12-0.7,0.22-1.07,0.33
				c-0.46,0.14-0.91,0.27-1.38,0.4c-0.93,0.25-1.86,0.49-2.81,0.71c-0.2,0.05-0.4,0.09-0.6,0.13c-0.27,0.07-0.55,0.13-0.82,0.19
				c-0.23,0.05-0.47,0.11-0.7,0.14c-0.62,0.13-1.25,0.26-1.89,0.36c-0.09,0.02-0.19,0.04-0.28,0.06c-0.27,0.05-0.53,0.09-0.8,0.13
				c-0.22,0.04-0.43,0.07-0.66,0.11c-0.06,0.01-0.11,0.01-0.16,0.02c-0.6,0.09-1.19,0.18-1.79,0.25c-0.09,0.02-0.18,0.04-0.27,0.04
				c-0.6,0.08-1.2,0.15-1.79,0.21c-0.12,0.01-0.25,0.02-0.37,0.05c-0.01,0-0.01,0-0.01,0c-0.36,0.04-0.73,0.06-1.09,0.08
				c-0.15,0.02-0.32,0.04-0.47,0.05c-0.19,0.01-0.36,0.02-0.55,0.04c-0.33,0.02-0.66,0.05-1,0.07c-0.14,0-0.28,0.01-0.42,0.01
				c-0.55,0.04-1.11,0.06-1.68,0.07c-0.15,0.01-0.3,0.01-0.46,0.01C78.22,153.98,77.61,154,77,154c-1.57,0-3.13-0.05-4.67-0.15
				c-0.54-0.02-1.09-0.06-1.63-0.11c-0.55-0.04-1.1-0.09-1.65-0.15c-0.62-0.06-1.24-0.13-1.85-0.21c-0.64-0.07-1.29-0.16-1.92-0.27
				c-0.64-0.08-1.28-0.19-1.9-0.32c-0.63-0.09-1.27-0.22-1.9-0.36c-0.57-0.11-1.14-0.22-1.7-0.36c-0.12-0.01-0.23-0.05-0.35-0.08
				c-0.56-0.12-1.12-0.26-1.68-0.41c-0.41-0.11-0.83-0.22-1.24-0.33c-0.11-0.02-0.21-0.06-0.3-0.08c-0.23-0.06-0.46-0.13-0.68-0.2
				c-0.3-0.08-0.6-0.16-0.88-0.26c-0.18-0.05-0.36-0.11-0.54-0.18c-0.16-0.04-0.33-0.08-0.48-0.14c-0.43-0.13-0.86-0.27-1.27-0.41
				c-0.09-0.04-0.19-0.06-0.28-0.11c-0.42-0.13-0.83-0.28-1.24-0.43c-0.11-0.04-0.21-0.07-0.32-0.12c-0.11-0.02-0.2-0.06-0.29-0.11
				c-0.42-0.16-0.84-0.32-1.27-0.48c-0.05-0.01-0.08-0.02-0.13-0.05v-0.01c-0.02,0-0.05-0.01-0.07-0.02
				c-0.55-0.21-1.1-0.43-1.64-0.66c-0.61-0.26-1.22-0.53-1.83-0.8l-0.01-0.01c-0.56-0.26-1.11-0.52-1.66-0.78c-0.01,0-0.01,0-0.02,0
				l-0.01-0.01c-0.55-0.27-1.1-0.54-1.64-0.82c-0.01,0-0.02,0-0.02,0c-0.01,0-0.01-0.01-0.01-0.01c-1.66-0.86-3.3-1.77-4.89-2.74
				c-0.53-0.32-1.05-0.64-1.57-0.97c-0.01,0-0.01,0-0.01-0.01c-0.5-0.33-1.01-0.66-1.5-1c-0.02,0-0.04-0.02-0.06-0.04
				c-0.5-0.34-1.02-0.69-1.51-1.04c-0.49-0.35-0.97-0.7-1.44-1.07c-0.02,0-0.05-0.02-0.07-0.05c-0.97-0.71-1.91-1.46-2.84-2.24
				c-0.04-0.01-0.06-0.04-0.08-0.06c-0.45-0.36-0.89-0.75-1.34-1.14c-0.02-0.01-0.05-0.04-0.07-0.05c-0.05-0.05-0.11-0.09-0.15-0.14
				c-0.42-0.36-0.83-0.74-1.24-1.1c-0.46-0.42-0.9-0.83-1.35-1.27c-0.36-0.35-0.73-0.7-1.08-1.05c-0.08-0.08-0.16-0.15-0.25-0.25
				c-0.84-0.83-1.68-1.71-2.47-2.59c-0.64-0.7-1.26-1.42-1.87-2.14c-0.43-0.5-0.84-1.02-1.25-1.54c-0.15-0.19-0.31-0.37-0.46-0.56
				c-0.26-0.32-0.5-0.63-0.74-0.95c-0.14-0.18-0.27-0.35-0.4-0.52c-0.04-0.05-0.07-0.08-0.09-0.12c-0.34-0.46-0.67-0.91-1-1.38
				c-0.04-0.04-0.07-0.08-0.09-0.13c-0.08-0.12-0.18-0.23-0.25-0.36c-0.27-0.39-0.54-0.77-0.81-1.17c-0.69-1.02-1.36-2.07-2-3.14
				c-0.43-0.71-0.84-1.43-1.25-2.16c-0.88-1.57-1.7-3.18-2.47-4.8c-0.47-1.01-0.93-2.02-1.36-3.05c-0.23-0.57-0.47-1.16-0.7-1.75
				c12.77,4.42,27.6,9.2,42.72,13.66c10.28,3.02,20.68,5.92,30.65,8.44c18.52,4.7,35.59,8.17,47.63,9.07
				C126.26,136.18,126.26,136.18,126.28,136.18z"></path>
		</g>
		<path fill="none" d="M154,77v0.01c0,0.82-0.01,1.63-0.05,2.44c-0.02,1.17-0.09,2.33-0.18,3.48c-0.05,0.64-0.11,1.3-0.18,1.94
			c-0.07,0.64-0.14,1.29-0.22,1.93c-0.08,0.64-0.16,1.29-0.27,1.92c-0.19,1.28-0.41,2.54-0.68,3.8c-0.11,0.52-0.21,1.03-0.33,1.55
			c-0.16,0.73-0.34,1.45-0.53,2.18c-0.15,0.61-0.33,1.22-0.49,1.83c-0.35,1.22-0.73,2.43-1.12,3.62c-0.21,0.6-0.41,1.18-0.63,1.78
			c-0.21,0.59-0.43,1.17-0.67,1.76c-0.23,0.59-0.47,1.16-0.71,1.73c-0.23,0.57-0.49,1.15-0.75,1.72c-0.26,0.56-0.52,1.12-0.77,1.68
			c-0.01,0.01-0.02,0.02-0.02,0.02c-0.27,0.56-0.54,1.11-0.82,1.66c-0.56,1.11-1.16,2.2-1.78,3.27c-0.3,0.54-0.62,1.08-0.95,1.61
			c-0.32,0.53-0.64,1.05-0.98,1.57c-0.33,0.53-0.67,1.04-1.02,1.56c-0.34,0.5-0.69,1.02-1.05,1.51c-1.68,2.37-3.49,4.64-5.42,6.8
			c-0.01,0.01-0.02,0.02-0.04,0.04c-0.49,0.56-1,1.11-1.52,1.65c-0.01,0.02-0.04,0.05-0.07,0.07c-0.28,0.29-0.56,0.6-0.86,0.88
			c-0.27,0.29-0.56,0.59-0.88,0.88c-0.28,0.29-0.57,0.59-0.88,0.86c0,0.02,0,0.02-0.01,0.01c-0.43,0.43-0.88,0.84-1.34,1.25
			c-0.53,0.48-1.07,0.96-1.61,1.41c-0.29,0.27-0.59,0.53-0.89,0.77c-3.8,3.16-7.91,5.98-12.27,8.37c-0.54,0.3-1.09,0.6-1.64,0.88
			h-0.01c-0.69,0.36-1.39,0.71-2.11,1.04c-1.08,0.53-2.17,1.02-3.28,1.48c-0.57,0.25-1.16,0.48-1.73,0.71
			c-1.05,0.42-2.13,0.82-3.22,1.18c-0.36,0.13-0.73,0.25-1.09,0.36c-0.06,0.02-0.12,0.05-0.18,0.06c-0.18,0.06-0.35,0.12-0.53,0.18
			h-0.01c-0.11,0.04-0.21,0.07-0.32,0.09c-0.35,0.12-0.7,0.22-1.07,0.33c-0.46,0.14-0.91,0.27-1.38,0.4
			c-0.93,0.25-1.86,0.49-2.81,0.71c-0.2,0.05-0.4,0.09-0.6,0.13c-0.27,0.07-0.55,0.13-0.82,0.19c-0.23,0.05-0.47,0.11-0.7,0.14
			c-0.28,0.06-0.56,0.11-0.84,0.16c-0.44,0.09-0.88,0.18-1.32,0.26c-0.27,0.05-0.53,0.09-0.8,0.13c-0.22,0.04-0.43,0.07-0.66,0.11
			c-0.06,0.01-0.11,0.01-0.16,0.02c-0.14,0.02-0.28,0.04-0.42,0.06c-1.26,0.19-2.53,0.36-3.81,0.48c-0.01,0-0.01,0-0.01,0
			c-0.52,0.05-1.04,0.09-1.56,0.13c-0.52,0.05-1.02,0.08-1.53,0.12c-1.45,0.07-2.92,0.12-4.39,0.12c-1.99,0-3.97-0.07-5.93-0.23
			c-1.3-0.09-2.59-0.22-3.88-0.4c-0.64-0.07-1.29-0.16-1.92-0.27c-0.64-0.08-1.28-0.19-1.9-0.32c-0.63-0.09-1.27-0.22-1.9-0.36
			c-0.57-0.11-1.14-0.22-1.7-0.36c-0.12-0.01-0.23-0.05-0.35-0.08c-0.56-0.12-1.12-0.26-1.68-0.41c-0.42-0.11-0.83-0.21-1.25-0.32
			c-0.09-0.04-0.2-0.07-0.29-0.09c-0.23-0.06-0.46-0.13-0.68-0.2c-0.3-0.08-0.6-0.16-0.88-0.26c-0.34-0.11-0.69-0.21-1.02-0.32
			c-0.43-0.13-0.86-0.27-1.27-0.41c-0.09-0.04-0.19-0.06-0.28-0.11c-0.42-0.13-0.83-0.28-1.24-0.43c-0.11-0.04-0.21-0.07-0.32-0.12
			c-0.11-0.02-0.2-0.06-0.29-0.11c-0.42-0.16-0.84-0.32-1.27-0.48c-0.05-0.01-0.08-0.02-0.13-0.05c-0.57-0.22-1.15-0.46-1.71-0.69
			c-0.61-0.26-1.22-0.53-1.83-0.8l-0.01-0.01c-0.56-0.25-1.12-0.52-1.69-0.78l-0.01-0.01c-0.56-0.26-1.11-0.54-1.66-0.82
			c-0.01,0-0.01-0.01-0.01-0.01c-0.93-0.48-1.84-0.97-2.74-1.49c-0.52-0.29-1.03-0.6-1.54-0.9c-0.2-0.12-0.4-0.23-0.6-0.35
			c-0.53-0.32-1.05-0.64-1.57-0.97c-0.01,0-0.01,0-0.01-0.01c-0.5-0.33-1.01-0.66-1.5-1c-0.02,0-0.04-0.02-0.06-0.04
			c-0.5-0.34-1.02-0.69-1.51-1.04c-0.49-0.35-0.97-0.7-1.44-1.07c-0.02,0-0.05-0.02-0.07-0.05c-0.97-0.71-1.91-1.46-2.84-2.24
			c-0.04-0.01-0.06-0.04-0.08-0.06c-0.47-0.39-0.94-0.78-1.41-1.18c-0.05-0.05-0.11-0.09-0.15-0.14c-0.42-0.36-0.83-0.74-1.24-1.1
			c-0.46-0.42-0.9-0.83-1.35-1.27c-0.36-0.35-0.73-0.7-1.08-1.05c-0.08-0.08-0.16-0.15-0.25-0.25c-0.84-0.84-1.66-1.7-2.47-2.59
			c-1.24-1.37-2.44-2.79-3.57-4.24c-0.26-0.32-0.5-0.63-0.74-0.95c-0.14-0.18-0.27-0.35-0.4-0.52c-0.02-0.05-0.06-0.08-0.08-0.12
			c-0.37-0.5-0.74-1.01-1.09-1.51c-0.09-0.12-0.18-0.23-0.26-0.36c-0.27-0.39-0.54-0.77-0.81-1.17c-0.69-1.02-1.36-2.07-2-3.14
			c-0.42-0.7-0.84-1.43-1.25-2.16c-0.88-1.57-1.7-3.18-2.47-4.8c-0.47-1.01-0.93-2.02-1.36-3.05c-0.23-0.57-0.47-1.16-0.7-1.75
			c-0.33-0.84-0.64-1.69-0.94-2.54c-0.01-0.01-0.01-0.01-0.01-0.01c-0.26-0.74-0.5-1.48-0.74-2.21c-0.06-0.21-0.13-0.41-0.19-0.61
			c-0.25-0.8-0.47-1.59-0.69-2.39c-0.25-0.89-0.47-1.78-0.68-2.67c-0.11-0.48-0.21-0.96-0.33-1.45c-0.08-0.42-0.16-0.83-0.25-1.25
			c-0.09-0.45-0.18-0.9-0.26-1.37c-0.11-0.56-0.2-1.14-0.28-1.71c-0.06-0.41-0.13-0.82-0.18-1.24c-0.06-0.39-0.11-0.78-0.15-1.18
			c-0.12-0.93-0.21-1.86-0.29-2.8v-0.01c-0.05-0.54-0.08-1.08-0.12-1.62c-0.04-0.54-0.07-1.09-0.08-1.63
			c-0.02-0.55-0.05-1.1-0.06-1.64c-0.01-0.55-0.01-1.1-0.01-1.65c0-0.55,0-1.09,0.01-1.64c0.01-0.54,0.04-1.08,0.06-1.63
			c0.02-0.54,0.05-1.08,0.08-1.62c0.11-1.62,0.25-3.22,0.45-4.8c0.01-0.05,0.01-0.08,0.01-0.13c0.14-1.02,0.29-2.03,0.46-3.02
			c0.7-4.18,1.75-8.24,3.09-12.16c0.23-0.7,0.48-1.39,0.75-2.09c0.78-2.11,1.66-4.16,2.62-6.17c0.14-0.29,0.28-0.59,0.42-0.87
			c0.13-0.28,0.27-0.56,0.42-0.84c0.12-0.23,0.23-0.46,0.35-0.68c0.13-0.23,0.25-0.47,0.37-0.69c0.55-1.04,1.12-2.06,1.73-3.07
			c0.7-1.18,1.44-2.34,2.2-3.48c0.54-0.8,1.09-1.58,1.65-2.35c2.62-3.61,5.55-6.98,8.75-10.08c1.59-1.55,3.26-3.02,4.98-4.43
			c0.01-0.01,0.02-0.02,0.04-0.02c0.5-0.41,1.02-0.82,1.53-1.22c0.12-0.09,0.23-0.18,0.34-0.27c0.54-0.41,1.09-0.81,1.64-1.21
			c0.61-0.45,1.22-0.87,1.83-1.29c0.79-0.53,1.58-1.05,2.39-1.55c0.46-0.29,0.91-0.57,1.38-0.86c0.57-0.34,1.15-0.68,1.72-1
			c0.12-0.07,0.23-0.13,0.34-0.2c0.61-0.34,1.23-0.67,1.85-1c0.67-0.34,1.34-0.68,2-1.01c0.68-0.33,1.36-0.64,2.05-0.95
			c0.68-0.32,1.37-0.61,2.07-0.89c0.55-0.23,1.1-0.46,1.65-0.67c0.32-0.13,0.63-0.25,0.95-0.36c0.56-0.2,1.12-0.4,1.7-0.61
			c0.57-0.19,1.16-0.39,1.76-0.57c1.41-0.45,2.84-0.86,4.28-1.22c0.34-0.09,0.69-0.18,1.03-0.26c0.42-0.11,0.84-0.2,1.28-0.29
			c0.49-0.12,0.98-0.21,1.49-0.32c0.54-0.11,1.08-0.21,1.62-0.3c1.59-0.29,3.21-0.53,4.84-0.7c0.5-0.06,1-0.12,1.5-0.15
			c0.14-0.02,0.27-0.04,0.4-0.05c0.49-0.05,0.98-0.08,1.48-0.12c0.48-0.04,0.96-0.06,1.45-0.08C74.35,0.04,75.67,0,77,0
			c0.6,0,1.19,0.01,1.8,0.02c0.29,0,0.59,0.01,0.89,0.04c0.42,0,0.84,0.02,1.27,0.05c0.49,0.02,1,0.05,1.49,0.09
			c0.46,0.02,0.9,0.06,1.36,0.11c0.45,0.04,0.9,0.07,1.35,0.13c0.53,0.05,1.05,0.11,1.58,0.18c0.05,0.01,0.09,0.01,0.14,0.02
			c0.62,0.07,1.23,0.16,1.85,0.26c0.63,0.09,1.27,0.2,1.9,0.32c0.63,0.11,1.27,0.23,1.89,0.36c0.46,0.08,0.9,0.19,1.34,0.28
			c1.34,0.29,2.65,0.63,3.96,1c0.37,0.09,0.74,0.21,1.1,0.33c0.81,0.23,1.62,0.48,2.41,0.75c0.28,0.09,0.57,0.19,0.87,0.29
			c0.43,0.15,0.86,0.3,1.28,0.46c0.49,0.18,0.97,0.36,1.45,0.55c0.69,0.27,1.37,0.54,2.05,0.83c0.57,0.23,1.15,0.49,1.71,0.75
			c2.34,1.05,4.63,2.23,6.84,3.51c0.47,0.27,0.94,0.55,1.39,0.83c0.47,0.28,0.94,0.56,1.39,0.87c2.79,1.77,5.45,3.71,7.97,5.82
			c0.34,0.28,0.68,0.56,1.01,0.86c0.04,0.04,0.07,0.06,0.11,0.08c0.53,0.47,1.05,0.94,1.58,1.41c0.55,0.52,1.09,1.03,1.63,1.55
			c0.54,0.53,1.08,1.05,1.59,1.59c0.53,0.54,1.04,1.09,1.55,1.64c0.53,0.57,1.04,1.16,1.56,1.75c0.5,0.59,1.01,1.18,1.5,1.79
			c0.47,0.57,0.93,1.15,1.37,1.73c0.05,0.06,0.08,0.12,0.12,0.16c0.45,0.57,0.88,1.16,1.29,1.75c0.02,0.02,0.05,0.05,0.06,0.07
			c0.09,0.13,0.18,0.25,0.27,0.37c0.32,0.45,0.63,0.9,0.94,1.36c0.54,0.78,1.05,1.58,1.55,2.39c0.25,0.39,0.48,0.77,0.71,1.17
			c0.47,0.78,0.93,1.57,1.36,2.37c0.32,0.57,0.62,1.15,0.93,1.72c0.3,0.59,0.6,1.17,0.89,1.76c0,0.01,0,0.01,0.01,0.02
			c0.56,1.17,1.1,2.35,1.62,3.56c0.27,0.62,0.52,1.25,0.77,1.89c0.25,0.63,0.48,1.27,0.71,1.91c0.23,0.64,0.46,1.29,0.68,1.93
			c0.21,0.64,0.42,1.3,0.62,1.96c0.02,0.08,0.05,0.18,0.07,0.26c0.18,0.56,0.34,1.14,0.49,1.7c0.18,0.66,0.35,1.31,0.52,1.98
			c0.15,0.63,0.3,1.27,0.43,1.9c0.41,1.82,0.74,3.67,1.01,5.53c0.08,0.54,0.15,1.08,0.21,1.62c0.08,0.62,0.15,1.25,0.21,1.87
			c0.04,0.36,0.07,0.71,0.09,1.08c0.04,0.34,0.06,0.68,0.08,1.02c0.04,0.46,0.06,0.91,0.08,1.38c0.04,0.6,0.06,1.2,0.07,1.8
			C153.98,75.51,154,76.25,154,77z"></path>
	</g>
	<g>
		<path fill="#FFFFFF" d="M103.21,112.47c-7.97,2.5-22.41,1.17-28.69-1.76c-0.04,0.53-0.05,1.05-0.05,1.58
			c0.01,5.45,1.85,10.56,4.16,14.81c3.94,7.31,9.28,12.16,9.28,12.16l-5.72,1.7c0,0,2.5,3.53,5.69,9.07
			c0.54,0.91,1.09,1.9,1.66,2.93c0,0,0,0,0,0.01c-0.22,0.04-0.43,0.07-0.66,0.11c-0.06,0.01-0.11,0.01-0.16,0.02
			c-0.14,0.02-0.28,0.04-0.42,0.06c-1.26,0.19-2.53,0.36-3.81,0.48c-0.01,0-0.01,0-0.01,0c-0.52,0.05-1.04,0.09-1.56,0.13
			c-0.52,0.05-1.02,0.08-1.53,0.12l-0.01-0.01l-0.01-0.01c-1.28-1.53-2.47-2.99-3.5-4.29c-2.58-3.25-4.24-5.53-4.24-5.53
			l-15.35,1.45c0,0-0.27,1.03-0.8,2.72c-0.26,0.84-0.59,1.86-0.97,3.01c0,0,0,0,0,0.01c0,0-0.01,0-0.01,0.01
			c-0.09-0.04-0.2-0.07-0.29-0.09c-0.23-0.06-0.46-0.13-0.68-0.2c-0.3-0.08-0.6-0.16-0.88-0.26c-0.34-0.11-0.69-0.21-1.02-0.32
			c-0.43-0.13-0.86-0.27-1.27-0.41c-0.09-0.04-0.19-0.06-0.28-0.11c-0.42-0.13-0.83-0.28-1.24-0.43c-0.11-0.04-0.21-0.07-0.32-0.12
			c-0.11-0.02-0.2-0.06-0.29-0.11c-0.42-0.16-0.84-0.32-1.27-0.48c-0.05-0.01-0.08-0.02-0.13-0.05v-0.01
			c0.09-0.41,0.19-0.8,0.26-1.15c0.39-1.64,0.63-2.6,0.63-2.6l-9.42-0.59c0,0,4.91-12.14,7.67-25.67
			c1.04-5.08,1.78-10.37,1.84-15.29v-0.16c0.01-6.98-5.79-12.4-10.61-21.63c-2.16-4.14-4.12-9.03-5.3-15.17
			c-0.2-1.02,3.33-4.18,3.68-3.2c0.82,2.28,1.8,4.49,2.87,6.56c0,0.01,0,0.01,0,0.01c5.17,10.01,12.33,17.16,12.33,17.16
			c0.63-19.43,20-15.71,23.27-3.94c2.87,10.33,1.99,16.43,1.99,16.43L74.8,99.5l0.3,1.73c6.73,5.28,18.36,6.48,27.4,6.49
			C105.3,107.73,105.88,111.64,103.21,112.47z"></path>
		<g>
			<path fill="#FFFFFF" d="M38.5,46.8c7.66-0.09,9.38-6.39,5.37-10.83c-2.5-2.77-3.75-7.67,0.28-10.17
				C24.59,28.57,27.21,46.93,38.5,46.8z"></path>
			<path fill="#FFFFFF" d="M38.15,49.94c-2.02,0.02-3.76-0.55-5.14-1.52c-0.87,4.36-1.54,9.85-1.86,15.84
				c-0.76,14.32-0.01,39.89,2.65,40.03c2.66,0.14,6.24-25.2,7-39.51c0.3-5.63,0.24-10.85-0.1-15.13
				C39.93,49.82,39.08,49.93,38.15,49.94z"></path>
		</g>
	</g>
	<path fill="#FEB400" d="M138.59,43l-7.65,7.7c-1.35,1.36-3.67,0.58-3.93-1.32l-1.46-10.76c-0.1-0.75-0.57-1.41-1.25-1.75l-9.69-4.9
		c-1.71-0.86-1.69-3.31,0.04-4.14l9.78-4.71c0.69-0.33,1.16-0.98,1.28-1.73l1.67-10.73c0.29-1.89,2.63-2.63,3.95-1.24l7.5,7.85
		c0.53,0.55,1.29,0.81,2.04,0.68l10.72-1.73c1.89-0.31,3.31,1.69,2.4,3.38l-5.15,9.56c-0.36,0.67-0.37,1.47-0.02,2.15l4.96,9.66
		c0.87,1.7-0.58,3.67-2.47,3.33l-10.68-1.94C139.9,42.22,139.13,42.46,138.59,43z"></path>
	<path fill="#ABD58D" d="M99.88,62.64l-6.12,4.5c-0.64,0.47-1.53,0-1.52-0.79l0.15-7.59c0.01-0.31-0.14-0.61-0.4-0.79l-6.17-4.43
		c-0.64-0.46-0.48-1.46,0.28-1.69l7.26-2.2c0.3-0.09,0.54-0.32,0.63-0.62l2.3-7.23c0.24-0.75,1.24-0.9,1.69-0.26l4.34,6.23
		c0.18,0.26,0.47,0.41,0.79,0.41l7.59-0.04c0.79,0,1.24,0.9,0.76,1.53l-4.58,6.05c-0.19,0.25-0.24,0.58-0.14,0.87l2.39,7.21
		c0.25,0.75-0.47,1.46-1.22,1.2l-7.17-2.49C100.46,62.4,100.13,62.45,99.88,62.64z"></path>
	<path fill="#FFFFFF" d="M78.67,28.81l-2.44,2.36c-1.23,1.19-3.3,0.45-3.49-1.25l-0.39-3.37c-0.08-0.68-0.48-1.27-1.08-1.59l-3-1.59
		c-1.51-0.8-1.45-3,0.11-3.71l3.09-1.41c0.62-0.28,1.06-0.85,1.18-1.52l0.59-3.34c0.3-1.69,2.4-2.3,3.56-1.04l2.29,2.5
		c0.46,0.5,1.14,0.74,1.81,0.65l3.36-0.47c1.7-0.24,2.93,1.57,2.09,3.07l-1.67,2.95c-0.33,0.59-0.36,1.31-0.06,1.92l1.49,3.05
		c0.75,1.54-0.59,3.28-2.27,2.93l-3.32-0.67C79.85,28.14,79.16,28.34,78.67,28.81z"></path>
	<path fill="#FEB400" d="M46.23,22.3l-0.53,0.46c-0.81,0.7-2.07,0.17-2.14-0.9l-0.04-0.7c-0.03-0.42-0.26-0.81-0.62-1.03l-0.6-0.36
		c-0.92-0.55-0.8-1.92,0.2-2.31l0.65-0.25c0.4-0.16,0.69-0.5,0.79-0.91l0.16-0.68c0.24-1.04,1.58-1.36,2.26-0.53l0.44,0.54
		c0.27,0.33,0.68,0.5,1.11,0.47l0.69-0.06c1.07-0.09,1.78,1.08,1.2,1.99l-0.38,0.59c-0.23,0.36-0.27,0.81-0.1,1.2l0.27,0.64
		c0.42,0.99-0.48,2.02-1.52,1.75l-0.67-0.18C46.99,21.92,46.55,22.02,46.23,22.3z"></path>
	<path fill="#E20035" d="M59.39,47.02l-3.52,0.91c-0.89,0.23-1.67-0.66-1.31-1.51l1.42-3.35c0.14-0.34,0.11-0.72-0.09-1.03
		l-1.96-3.07c-0.5-0.78,0.12-1.79,1.04-1.71l3.63,0.31c0.37,0.03,0.72-0.12,0.96-0.4l2.32-2.81c0.59-0.71,1.74-0.44,1.95,0.46
		l0.82,3.55c0.08,0.36,0.34,0.65,0.68,0.79l3.39,1.33c0.86,0.34,0.96,1.52,0.17,1.99l-3.12,1.88c-0.31,0.19-0.52,0.52-0.54,0.89
		l-0.22,3.63c-0.06,0.92-1.15,1.38-1.84,0.77l-2.75-2.39C60.13,47.02,59.75,46.93,59.39,47.02z"></path>
	<path fill="#00B5FF" d="M126.18,118.67l-1.35,0.35c-0.39,0.1-0.72-0.29-0.56-0.65l0.54-1.28c0.06-0.15,0.05-0.31-0.04-0.45
		l-0.75-1.17c-0.21-0.34,0.05-0.77,0.45-0.74l1.39,0.12c0.16,0.01,0.31-0.05,0.41-0.17l0.89-1.07c0.25-0.31,0.75-0.19,0.84,0.2
		l0.31,1.36c0.04,0.15,0.15,0.28,0.29,0.34l1.3,0.51c0.37,0.15,0.41,0.65,0.07,0.86l-1.19,0.72c-0.14,0.08-0.22,0.22-0.23,0.38
		l-0.08,1.39c-0.02,0.4-0.49,0.6-0.8,0.33l-1.05-0.91C126.5,118.67,126.34,118.63,126.18,118.67z"></path>
	<path fill="#00B5FF" d="M15.11,70.09l-1.81,0.47c-0.52,0.13-0.97-0.38-0.76-0.88l0.73-1.72c0.08-0.2,0.06-0.42-0.05-0.6l-1.01-1.58
		c-0.29-0.45,0.07-1.04,0.6-0.99l1.87,0.16c0.21,0.02,0.42-0.07,0.56-0.23l1.19-1.44c0.34-0.41,1.01-0.26,1.13,0.27l0.42,1.82
		c0.05,0.21,0.2,0.38,0.39,0.46l1.74,0.69c0.5,0.2,0.56,0.88,0.1,1.16l-1.6,0.97c-0.18,0.11-0.3,0.3-0.31,0.51L18.18,71
		c-0.03,0.54-0.66,0.8-1.07,0.45l-1.41-1.23C15.53,70.08,15.31,70.03,15.11,70.09z"></path>
	<path fill="#0048BB" d="M96.87,82.32l-1.81,0.47c-0.52,0.13-0.97-0.38-0.76-0.88l0.73-1.72c0.08-0.2,0.06-0.42-0.05-0.6l-1.01-1.58
		c-0.29-0.45,0.07-1.04,0.6-0.99l1.87,0.16c0.21,0.02,0.42-0.07,0.56-0.23l1.19-1.44c0.34-0.41,1.01-0.26,1.13,0.27l0.42,1.82
		c0.05,0.21,0.2,0.38,0.39,0.46l1.74,0.69c0.5,0.2,0.56,0.88,0.1,1.16l-1.6,0.97c-0.18,0.11-0.3,0.3-0.31,0.51l-0.11,1.87
		c-0.03,0.54-0.66,0.8-1.07,0.45l-1.41-1.23C97.29,82.32,97.07,82.27,96.87,82.32z"></path>
	<path fill="#0048BB" d="M98.34,17.38l-1.81,0.47c-0.52,0.13-0.97-0.38-0.76-0.88l0.73-1.72c0.08-0.2,0.06-0.42-0.05-0.6l-1.01-1.58
		c-0.29-0.45,0.07-1.04,0.6-0.99l1.87,0.16c0.21,0.02,0.42-0.07,0.56-0.23l1.19-1.44c0.34-0.41,1.01-0.26,1.13,0.27l0.42,1.82
		c0.05,0.21,0.2,0.38,0.39,0.46l1.74,0.69c0.5,0.2,0.56,0.88,0.1,1.16l-1.6,0.97c-0.18,0.11-0.3,0.3-0.31,0.51l-0.11,1.87
		c-0.03,0.54-0.66,0.8-1.07,0.45l-1.41-1.23C98.76,17.38,98.54,17.33,98.34,17.38z"></path>
	<path fill="#0081FF" d="M101.49,103.57l-1.18,0.31c-0.34,0.09-0.63-0.25-0.49-0.57l0.48-1.12c0.05-0.13,0.04-0.27-0.03-0.39
		l-0.65-1.03c-0.19-0.29,0.04-0.68,0.39-0.65l1.21,0.11c0.14,0.01,0.27-0.04,0.36-0.15l0.77-0.94c0.22-0.27,0.66-0.17,0.73,0.17
		l0.27,1.19c0.03,0.13,0.13,0.25,0.26,0.3l1.13,0.45c0.32,0.13,0.36,0.57,0.06,0.75l-1.04,0.63c-0.12,0.07-0.19,0.2-0.2,0.33
		l-0.07,1.22c-0.02,0.35-0.43,0.52-0.7,0.29l-0.92-0.8C101.77,103.57,101.63,103.53,101.49,103.57z"></path>
	<path fill="#0081FF" d="M135.58,105.91l-1.06,0.28c-0.3,0.08-0.57-0.23-0.44-0.52l0.43-1.01c0.05-0.11,0.04-0.25-0.03-0.35
		l-0.59-0.93c-0.17-0.27,0.04-0.61,0.35-0.58l1.09,0.09c0.12,0.01,0.25-0.04,0.33-0.14l0.7-0.85c0.2-0.24,0.59-0.15,0.66,0.16
		l0.25,1.07c0.03,0.12,0.11,0.22,0.23,0.27l1.02,0.4c0.29,0.12,0.33,0.52,0.06,0.68l-0.94,0.57c-0.11,0.06-0.18,0.18-0.18,0.3
		l-0.07,1.1c-0.02,0.31-0.39,0.47-0.63,0.26l-0.83-0.72C135.83,105.91,135.7,105.88,135.58,105.91z"></path>
	<path fill="#FFFF00" d="M100.31,29.15l-1.06,0.28c-0.3,0.08-0.57-0.23-0.44-0.52l0.43-1.01c0.05-0.11,0.04-0.25-0.03-0.35
		l-0.59-0.93c-0.17-0.27,0.04-0.61,0.35-0.58l1.09,0.09c0.12,0.01,0.25-0.04,0.33-0.14l0.7-0.85c0.2-0.24,0.59-0.15,0.66,0.16
		l0.25,1.07c0.03,0.12,0.11,0.22,0.23,0.27l1.02,0.4c0.29,0.12,0.33,0.52,0.06,0.68l-0.94,0.57c-0.11,0.06-0.18,0.18-0.18,0.3
		l-0.07,1.1c-0.02,0.31-0.39,0.47-0.63,0.26l-0.83-0.72C100.56,29.15,100.43,29.12,100.31,29.15z"></path>
</g>
</svg>